<svg xmlns="http://www.w3.org/2000/svg" xmlns:xlink="http://www.w3.org/1999/xlink" width="500" height="500" viewBox="0 0 500 500">
  <defs>
    <linearGradient id="linear-gradient" y1="0.5" x2="1" y2="0.5" gradientUnits="objectBoundingBox">
      <stop offset="0" stop-color="#00bfff"/>
      <stop offset="0.1" stop-color="#03c0f5"/>
      <stop offset="0.264" stop-color="#0bc3dd"/>
      <stop offset="0.471" stop-color="#18c9b5"/>
      <stop offset="0.714" stop-color="#2bd07d"/>
      <stop offset="0.984" stop-color="#43da37"/>
      <stop offset="1" stop-color="#45db33"/>
    </linearGradient>
    <clipPath id="clip-path">
      <circle id="Ellipse_7" data-name="Ellipse 7" cx="250" cy="250" r="250" fill="none"/>
    </clipPath>
  </defs>
  <g id="Group_988" data-name="Group 988" transform="translate(-870.259 -936.939)">
    <circle id="Ellipse_6" data-name="Ellipse 6" cx="250" cy="250" r="250" transform="translate(870.259 936.939)" fill="url(#linear-gradient)"/>
    <g id="Group_983" data-name="Group 983" transform="translate(870.259 936.939)">
      <g id="Group_982" data-name="Group 982" clip-path="url(#clip-path)">
        <path id="Path_1058" data-name="Path 1058" d="M1058.624,1304.868a295.118,295.118,0,0,1-46.4-3.686l-.536-.085-.46-.283c-40.2-24.72-77.027-75.573-109.445-151.149l-1.024-2.384,2.336-1.135c14.395-7.007,27.693-12.688,39.425-17.7,29.008-12.389,49.987-21.35,64.338-39.5,4.661-8.011,6.49-26.016,5.286-52.092l5.439-.25c1.277,27.695-.786,46.293-6.133,55.273l-.2.291c-15.217,19.341-37.89,29.024-66.6,41.285-11.03,4.715-23.457,10.02-36.839,16.458,31.585,72.908,67.175,122.016,105.8,145.982a289.242,289.242,0,0,0,113.695-4.777c36.681-25.774,69.87-73.528,96.092-138.232-23.775-13.458-40.359-22.349-52.557-28.89-26.138-14.014-32.347-17.343-45.539-31.452-8.055-8.616-12.323-25.556-14.738-58.472l5.428-.4c2.284,31.139,6.258,47.632,13.287,55.151,12.576,13.453,18.013,16.368,44.135,30.371,12.574,6.743,29.794,15.977,54.743,30.129l2.069,1.173-.882,2.2c-26.854,67.056-61.2,116.564-99.332,143.167l-.416.289-.49.122A293.209,293.209,0,0,1,1058.624,1304.868Z" transform="translate(-817.731 -770.348)" fill="#005f83"/>
        <path id="Path_1059" data-name="Path 1059" d="M940.668,1073.133c10.628-42.142,10.108-55.453,49.07-86.739,46.263,50,99.841,32.96,109.17,94.152,11.4-8.408,7.782-29.413,7.213-39.038-1.456-46.4-44.284-96.749-87.24-91.4-61.268,12.168-72.222,30.415-91.329,104.232l13.115,18.791Z" transform="translate(-771.59 -914.932)" fill="#005f83" fill-rule="evenodd"/>
        <path id="Path_1060" data-name="Path 1060" d="M1273.261,1109.993l-84.11-31.563-.038.152-17.292-6.979,1.11-2.053-17.405-17.6-56.921,60.672h0l-56.921-60.672-17.405,17.6,1.11,2.053-18.554,7.491h0l-84.7,30.9s-39.3,69.176-39.3,163.687h431.543C1314.376,1179.168,1273.261,1109.993,1273.261,1109.993Z" transform="translate(-848.605 -738.879)" fill="#005f83"/>
        <path id="Path_1061" data-name="Path 1061" d="M1016.437,1027.3c-4.195,1.381-11.055,5.831-33.219,5.08-22.164.751-29.024-3.7-33.221-5.08-.667,12.664-.052,28.507,17.5,34.67,13.094,2.627,10.592-8.561,5.3-9.9l10.418-9.144,10.418,9.144c-5.295,1.336-7.8,12.525,5.3,9.9C1016.488,1055.811,1017.106,1039.968,1016.437,1027.3Z" transform="translate(-733.217 -781.314)" fill="#fff"/>
        <path id="Path_1062" data-name="Path 1062" d="M971.965,1064.9a19.524,19.524,0,0,1-3.852-.421c-20.128-7.051-19.093-26.653-18.6-36.075l.093-1.777,1.69.555c.656.215,1.372.5,2.194.83,4.489,1.8,12.021,4.8,30.556,4.181,18.655.615,26.155-2.382,30.649-4.181.822-.33,1.535-.615,2.191-.83l1.691-.555.092,1.777c.5,9.422,1.536,29.024-18.41,36.026-9.2,1.854-10.93-2.638-11.253-4.056a7.581,7.581,0,0,1,3.07-7.451l-7.984-7.009-7.984,7.009a7.585,7.585,0,0,1,3.068,7.451C978.915,1061.561,977.646,1064.9,971.965,1064.9Zm-19.815-34.492c-.493,13.357,1.546,26.141,16.681,31.452,4.263.847,7.208.082,7.7-2.085a4.832,4.832,0,0,0-3.182-5.207l-2.51-.635,13.262-11.643,13.262,11.643-2.512.635a4.835,4.835,0,0,0-3.182,5.207c.493,2.165,3.438,2.924,7.878,2.036,14.964-5.265,16.995-18.045,16.5-31.4l-.327.13c-4.687,1.881-12.527,5.036-31.662,4.374-19.033.659-26.881-2.5-31.569-4.374C952.368,1030.493,952.259,1030.45,952.15,1030.406Z" transform="translate(-734.097 -782.484)" fill="#005f83"/>
        <path id="Path_1063" data-name="Path 1063" d="M1082.01,1045.533c-2.755,28.3-4.222,26-24.107,36.039-7.973-19.741-16.605-12.5-45.139-12.5s-37.166-7.244-45.142,12.5c-19.885-10.034-29.519-32.236-32.274-60.539-2.564-4.905-2.9-24.7-2.9-24.7s1.884,75.07,14.452,104.11c7.3,16.864,42.735,40.849,65.866,40.849s58.565-23.985,65.863-40.849c12.568-29.04,9.008-93.221,9.008-93.221S1084.574,1040.628,1082.01,1045.533Z" transform="translate(-763.163 -834.643)" fill="#005f83"/>
        <path id="Path_1064" data-name="Path 1064" d="M1013.792,1200.094q-1.523,0-3-.131c-32.378-1.127-79.5-46.4-79.308-114.75.019-7.037-.073-13.905-.161-20.563-.6-45.234-1.07-80.96,32.9-97.162,12.31-5.869,28.1-8.725,48.253-8.725h.027c29.851.006,50.507,6.22,63.143,19,19.1,19.305,18.75,52.072,18.345,90.011-.052,4.987-.109,10.091-.12,15.3-.109,38.8-15.159,75.652-40.269,98.581C1040.63,1193.5,1026.3,1200.094,1013.792,1200.094Zm-1.317-235.887c-19.33,0-34.348,2.681-45.91,8.2-30.826,14.7-30.371,48.888-29.8,92.173.087,6.688.18,13.587.161,20.653-.193,70.052,48.2,108.394,74.2,109.3,11.817,1.042,25.907-5.123,38.8-16.9,24-21.916,38.394-57.272,38.5-94.577.011-5.221.068-10.339.12-15.342.409-38.233.732-68.433-16.771-86.124-11.564-11.689-30.951-17.375-59.272-17.381Z" transform="translate(-765.361 -899.354)" fill="#005f83"/>
        <path id="Path_1065" data-name="Path 1065" d="M1010.937,952.2c-86.056-9.838-107.871,106.929-69.932,176.753,21.266,39.137,15.527,74.255,89.734,76.6,70.208,2.219,70.929-45,88.367-86.037C1159.843,1023.657,1122.285,926.521,1010.937,952.2Zm95.453,180.529c-3.729-.01-4.791-2.616-4.908-7.548-12.517,50.091-49.525,81.221-75.772,78.9-23.588-.825-60.07-28.245-72.5-76.6-.444,3.329-1.7,5.091-4.756,5.083-7.568-.022-9.906-14.817-14.174-31.286s.253-33.507,7.821-33.486h0c2.81.008,5,2.178,6.65,5.875-.588-45.186-1.62-81.181,31.319-96.89,11.5-5.482,26.781-8.463,47.113-8.461,80.045.014,79.428,44.17,78.764,106.617,1.712-4.345,4.05-6.944,7.124-6.936h0c7.568.022,12,17.087,7.65,33.532S1113.955,1132.753,1106.391,1132.731Z" transform="translate(-779.292 -917.854)" fill="#005f83" fill-rule="evenodd"/>
      </g>
    </g>
  </g>
</svg>
