<svg version="1.2" baseProfile="tiny-ps" xmlns="http://www.w3.org/2000/svg" viewBox="0 0 19 23" width="19" height="23">
	<title>Jobseeker</title>
	<defs>
		<clipPath clipPathUnits="userSpaceOnUse" id="cp1">
			<path d="M0.5 0.68L18.59 0.68L18.59 22.22L0.5 22.22L0.5 0.68Z" />
		</clipPath>
	</defs>
	<style>
		tspan { white-space:pre }
		.shp0 { fill: #005f83 } 
	</style>
	<g id="Jobseeker">
		<g id="Group 287">
			<g id="Group 193">
				<g id="Group 192">
					<g id="Group 191" clip-path="url(#cp1)">
						<path id="Path 541" fill-rule="evenodd" class="shp0" d="M15.49 3.5C17.17 5.19 18.09 7.43 18.09 9.82C18.22 12.76 14.14 18.39 12.26 20.74C11.51 21.69 10.39 22.23 9.18 22.23C8.01 22.23 6.92 21.72 6.18 20.83C3.64 17.52 0.37 13.21 0.25 9.82C0.15 5.02 4.36 0.78 9.17 0.88L9.18 0.88C11.57 0.88 13.81 1.81 15.49 3.5ZM10.95 19.7C14.43 15.29 16.42 11.68 16.42 9.82C16.42 5.81 13.17 2.55 9.18 2.55L9.17 2.55C5.17 2.55 1.91 5.81 1.91 9.82C1.91 11.66 3.97 15.32 7.41 19.71C8.27 20.84 10.09 20.84 10.95 19.7ZM5.67 9.81C5.87 5.1 12.57 5.11 12.76 9.81C12.76 11.76 11.17 13.35 9.22 13.35C7.26 13.35 5.67 11.76 5.67 9.81ZM7.34 9.81C7.44 12.29 10.99 12.29 11.09 9.81C11.09 8.77 10.25 7.93 9.22 7.93C8.18 7.93 7.34 8.77 7.34 9.81Z" />
					</g>
				</g>
			</g>
		</g>
	</g>
</svg>