<svg version="1.2" baseProfile="tiny-ps" xmlns="http://www.w3.org/2000/svg" viewBox="0 0 20 22" width="20" height="22">
	<title>Jobseeker</title>
	<style>
		tspan { white-space:pre }
		.shp0 { fill: #005f83 } 
	</style>
	<g id="Jobseeker">
		<g id="Group 287">
			<path id="Path 540" fill-rule="evenodd" class="shp0" d="M7.42 20.37C7.42 20.81 7.06 21.17 6.61 21.17L3.91 21.17C2.12 21.17 0.67 19.72 0.67 17.94L0.67 3.71C0.67 1.93 2.12 0.48 3.91 0.48L13.85 0.48C15.63 0.48 17.08 1.93 17.08 3.71L17.08 8.69C17.08 9.13 16.72 9.49 16.27 9.49C15.82 9.49 15.46 9.13 15.46 8.69L15.46 3.71C15.46 2.82 14.74 2.1 13.85 2.1L3.91 2.1C3.02 2.1 2.29 2.82 2.29 3.71L2.29 17.94C2.29 18.83 3.02 19.56 3.91 19.56L6.61 19.56C7.06 19.56 7.42 19.92 7.42 20.37ZM13.85 6.14C13.85 6.58 13.48 6.95 13.04 6.95L4.71 6.95C4.26 6.95 3.9 6.58 3.9 6.14C3.9 5.69 4.26 5.33 4.71 5.33L13.04 5.33C13.48 5.33 13.85 5.69 13.85 6.14ZM13.04 10.18L4.71 10.18C4.26 10.18 3.9 9.82 3.9 9.37C3.9 8.93 4.26 8.56 4.71 8.56L13.04 8.56C13.48 8.56 13.85 8.93 13.85 9.37C13.85 9.82 13.48 10.18 13.04 10.18ZM9.77 11.8C10.21 11.8 10.58 12.16 10.58 12.61C10.58 13.05 10.21 13.41 9.77 13.41L4.71 13.41C4.26 13.41 3.9 13.05 3.9 12.61C3.9 12.16 4.26 11.8 4.71 11.8L9.77 11.8ZM18.51 15.61L14.08 20.03C13.98 20.13 13.86 20.2 13.73 20.24L10.46 21.15C10.39 21.17 10.32 21.17 10.25 21.17C10.03 21.17 9.82 21.09 9.67 20.93C9.46 20.72 9.39 20.41 9.47 20.13L10.44 16.95C10.48 16.82 10.55 16.71 10.64 16.61L15.08 12.18C16.03 11.24 17.57 11.24 18.51 12.18C19.46 13.13 19.46 14.67 18.51 15.61ZM16.07 15.77L14.92 14.63L11.93 17.61L11.45 19.19L13.09 18.74L16.07 15.77ZM17.37 13.33C17.05 13.01 16.54 13.01 16.22 13.33L16.07 13.48L17.21 14.63L17.37 14.47C17.68 14.16 17.68 13.64 17.37 13.33Z" />
		</g>
	</g>
</svg>