<svg version="1.2" baseProfile="tiny-ps" xmlns="http://www.w3.org/2000/svg" viewBox="0 0 23 17" width="23" height="17">
	<title>Jobseeker</title>
	<style>
		tspan { white-space:pre }
		.shp0 { fill: #005f83 } 
	</style>
	<g id="Jobseeker">
		<g id="Group 287">
			<g id="Group 189">
				<path id="Path 539" fill-rule="evenodd" class="shp0" d="M10.88 16.99C10.42 16.99 10.04 16.61 10.04 16.15C10.04 15.69 10.42 15.32 10.88 15.32L17.22 15.32C19.06 15.32 20.55 13.82 20.55 11.98L20.55 5.14C20.55 3.3 19.06 1.81 17.22 1.81L5.87 1.81C4.03 1.81 2.54 3.3 2.54 5.14L2.54 11.57C2.54 11.8 2.72 11.98 2.95 11.98L5.46 11.98C5.92 11.98 6.29 12.36 6.29 12.82C6.29 13.28 5.92 13.65 5.46 13.65L2.95 13.65C1.81 13.65 0.87 12.71 0.87 11.57L0.87 5.14C0.87 2.38 3.12 0.14 5.87 0.14L17.22 0.14C19.98 0.14 22.22 2.38 22.22 5.14L22.22 11.98C22.22 14.74 19.98 16.99 17.22 16.99L10.88 16.99ZM8.38 16.15C8.38 16.61 8 16.99 7.54 16.99L1.7 16.99C1.24 16.99 0.87 16.61 0.87 16.15C0.87 15.69 1.24 15.32 1.7 15.32L7.54 15.32C8 15.32 8.38 15.69 8.38 16.15ZM14.88 8.56C14.88 10.4 13.38 11.9 11.54 11.9C9.71 11.9 8.21 10.4 8.21 8.56C8.21 6.72 9.71 5.23 11.54 5.23C13.38 5.23 14.88 6.72 14.88 8.56ZM13.21 8.56C13.21 7.64 12.46 6.9 11.54 6.9C10.63 6.9 9.88 7.64 9.88 8.56C9.88 9.48 10.63 10.23 11.54 10.23C12.46 10.23 13.21 9.48 13.21 8.56ZM18.93 5.77C18.93 6.23 18.55 6.6 18.09 6.6C16.83 6.6 15.8 5.57 15.8 4.31C15.8 3.85 16.17 3.48 16.63 3.48C17.09 3.48 17.47 3.85 17.47 4.31C17.47 4.65 17.75 4.94 18.09 4.94C18.55 4.94 18.93 5.31 18.93 5.77ZM7.38 4.39C7.38 5.66 6.35 6.69 5.08 6.69C4.62 6.69 4.25 6.31 4.25 5.85C4.25 5.39 4.62 5.02 5.08 5.02C5.43 5.02 5.71 4.74 5.71 4.39C5.71 3.93 6.08 3.56 6.54 3.56C7 3.56 7.38 3.93 7.38 4.39ZM17.47 12.82C17.47 13.28 17.09 13.65 16.63 13.65C16.17 13.65 15.8 13.28 15.8 12.82C15.8 11.55 16.83 10.52 18.09 10.52C18.55 10.52 18.93 10.9 18.93 11.36C18.93 11.82 18.55 12.19 18.09 12.19C17.75 12.19 17.47 12.47 17.47 12.82Z" />
			</g>
		</g>
	</g>
</svg>