<svg version="1.2" baseProfile="tiny-ps" xmlns="http://www.w3.org/2000/svg" viewBox="0 0 21 21" width="21" height="21">
	<title>Jobseeker</title>
	<style>
		tspan { white-space:pre }
		.shp0 { fill: #005f83 } 
	</style>
	<g id="Jobseeker">
		<g id="Group 287">
			<g id="Group 188">
				<g id="Group 187">
					<path id="Path 538" fill-rule="evenodd" class="shp0" d="M3.19 3.57C6.91 -0.3 13.59 -0.3 17.3 3.57C23.55 9.84 19.1 20.59 10.25 20.6C1.39 20.59 -3.06 9.84 3.19 3.57ZM1.83 10.62C2.29 21.79 18.2 21.78 18.66 10.62C18.66 5.98 14.89 2.21 10.25 2.21C5.6 2.21 1.83 5.98 1.83 10.62ZM13.87 13.15C14.18 13.45 14.18 13.95 13.87 14.25C13.57 14.56 13.08 14.56 12.77 14.25L10.31 11.79C9.2 11.85 8.65 10.48 9.47 9.75C9.47 9.74 9.47 5.18 9.47 5.17C9.51 4.14 10.98 4.13 11.02 5.17C11.02 5.18 11.02 9.74 11.02 9.75C11.28 9.98 11.43 10.32 11.41 10.69L13.87 13.15Z" />
				</g>
			</g>
		</g>
	</g>
</svg>